<svg xmlns="http://www.w3.org/2000/svg"  width="500" zoomAndPan="magnify" viewBox="0 0 375 374.999991" height="500" preserveAspectRatio="xMidYMid meet" version="1.0"><defs><clipPath id="a5e1a1ccb7"><path d="M 212 10.3125 L 375 10.3125 L 375 320 L 212 320 Z M 212 10.3125 " clip-rule="nonzero"/></clipPath></defs><path fill="#7acbcd" d="M 75 319.40625 L 10.917969 319.40625 C 5.257812 319.40625 0.605469 314.753906 0.605469 309.09375 L 0.605469 27.292969 C 0.605469 21.632812 5.257812 16.984375 10.917969 16.984375 L 75 16.984375 C 80.660156 16.984375 85.308594 21.632812 85.308594 27.292969 L 85.308594 309.09375 C 85.308594 314.753906 80.660156 319.40625 75 319.40625 Z M 75 319.40625 " fill-opacity="1" fill-rule="nonzero"/><path fill="#ffffff" d="M 374.390625 340.023438 L 374.390625 359.027344 C 374.390625 362.261719 371.761719 364.6875 368.730469 364.6875 L 6.269531 364.6875 C 3.035156 364.6875 0.605469 362.058594 0.605469 359.027344 L 0.605469 340.023438 C 0.605469 336.789062 3.234375 334.363281 6.269531 334.363281 L 368.730469 334.363281 C 371.964844 334.363281 374.390625 336.992188 374.390625 340.023438 Z M 374.390625 340.023438 " fill-opacity="1" fill-rule="nonzero"/><path fill="#ffffff" d="M 183.152344 319.40625 L 119.070312 319.40625 C 113.410156 319.40625 108.757812 314.753906 108.757812 309.09375 L 108.757812 27.292969 C 108.757812 21.632812 113.410156 16.984375 119.070312 16.984375 L 183.152344 16.984375 C 188.8125 16.984375 193.460938 21.632812 193.460938 27.292969 L 193.460938 309.09375 C 193.257812 314.753906 188.8125 319.40625 183.152344 319.40625 Z M 183.152344 319.40625 " fill-opacity="1" fill-rule="nonzero"/><g clip-path="url(#a5e1a1ccb7)"><path fill="#ffffff" d="M 367.113281 300.808594 L 305.65625 318.796875 C 300.199219 320.414062 294.539062 317.382812 292.921875 311.925781 L 213.273438 41.644531 C 211.65625 36.1875 214.6875 30.527344 220.144531 28.910156 L 281.601562 10.71875 C 287.058594 9.097656 292.71875 12.132812 294.335938 17.589844 L 373.984375 288.070312 C 375.601562 293.53125 372.570312 299.191406 367.113281 300.808594 Z M 367.113281 300.808594 " fill-opacity="1" fill-rule="nonzero"/></g></svg>